HIERARCHY
ROOT Hips
{
	OFFSET 0.000000 0.000000 0.000000 
	CHANNELS 6 Xposition Yposition Zposition Zrotation Yrotation Xrotation
	JOINT LeftUpLeg
	{
		OFFSET 1.363060 -1.794630 0.839290 
		CHANNELS 3 Zrotation Yrotation Xrotation
		JOINT LeftLeg
		{
			OFFSET 2.448110 -6.726130 0.000000 
			CHANNELS 3 Zrotation Yrotation Xrotation
			JOINT LeftFoot
			{
				OFFSET 2.562200 -7.039590 0.000000 
				CHANNELS 3 Zrotation Yrotation Xrotation
				JOINT LeftToeBase
				{
					OFFSET 0.157640 -0.433110 2.322550 
					CHANNELS 3 Zrotation Yrotation Xrotation
					End Site
					{
						OFFSET 0.000000 0.000000 0.000000 
					}
				}
			}
		}
	}
	JOINT RightUpLeg
	{
		OFFSET -1.305520 -1.794630 0.839290 
		CHANNELS 3 Zrotation Yrotation Xrotation
		JOINT RightLeg
		{
			OFFSET -2.542530 -6.985550 0.000000 
			CHANNELS 3 Zrotation Yrotation Xrotation
			JOINT RightFoot
			{
				OFFSET -2.568260 -7.056230 0.000000 
				CHANNELS 3 Zrotation Yrotation Xrotation
				JOINT RightToeBase
				{
					OFFSET -0.164730 -0.452590 2.363150 
					CHANNELS 3 Zrotation Yrotation Xrotation
					End Site
					{
						OFFSET 0.000000 0.000000 0.000000 
					}
				}
			}
		}
	}
	JOINT Spine
	{
		OFFSET 0.028270 2.035590 -0.193380 
		CHANNELS 3 Zrotation Yrotation Xrotation
		JOINT Spine1
		{
			OFFSET 0.056720 2.048850 -0.042750 
			CHANNELS 3 Zrotation Yrotation Xrotation
			JOINT Neck1
			{
				OFFSET -0.054170 1.746240 0.172020 
				CHANNELS 3 Zrotation Yrotation Xrotation
				JOINT Head
				{
					OFFSET 0.104070 1.761360 -0.123970 
					CHANNELS 3 Zrotation Yrotation Xrotation
					End Site
					{
						OFFSET 0.000000 0.000000 0.000000 
					}
				}
			}
			JOINT LeftArm
			{
				OFFSET 3.362410 1.200890 -0.311210 
				CHANNELS 3 Zrotation Yrotation Xrotation
				JOINT LeftForeArm
				{
					OFFSET 4.983000 -0.000000 -0.000000 
					CHANNELS 3 Zrotation Yrotation Xrotation
					JOINT LeftHand
					{
						OFFSET 3.483560 -0.000000 -0.000000 
						CHANNELS 3 Zrotation Yrotation Xrotation
						JOINT LeftHandIndex1
						{
							OFFSET 0.715260 -0.000000 -0.000000 
							CHANNELS 3 Zrotation Yrotation Xrotation
							End Site
							{
								OFFSET 0.000000 0.000000 0.000000 
							}
						}
					}
				}
			}
			JOINT RightArm
			{
				OFFSET -3.136600 1.374050 -0.404650 
				CHANNELS 3 Zrotation Yrotation Xrotation
				JOINT RightForeArm
				{
					OFFSET -5.241900 -0.000000 -0.000000 
					CHANNELS 3 Zrotation Yrotation Xrotation
					JOINT RightHand
					{
						OFFSET -3.444170 -0.000000 -0.000000 
						CHANNELS 3 Zrotation Yrotation Xrotation
						JOINT RightHandIndex1
						{
							OFFSET -0.622530 -0.000000 -0.000000 
							CHANNELS 3 Zrotation Yrotation Xrotation
							End Site
							{
								OFFSET 0.000000 0.000000 0.000000 
							}
						}
					}
				}
			}
		}
	}
}
MOTION
Frames: 10
Frame Time: 0.041667
-0.145597 17.866475 -30.993275 -2.286946 3.255439 3.174641 -11.801733 -1.077970 -9.668358 0.444947 8.725811 22.606952 -3.365136 14.932472 -2.177189 0.146300 -2.464900 -6.792500 18.225945 -0.992650 -8.343878 -1.191342 -9.099115 23.866252 4.533381 -20.294145 -9.451761 -0.013200 0.741000 -2.036500 2.267885 -1.002606 -1.880445 1.807750 -0.542797 -2.623831 -2.037118 -8.563105 20.877801 -5.473600 -3.280400 12.344000 -90.404433 5.545663 19.641138 16.409513 -25.520986 -3.337518 0.290803 0.478550 -8.160095 -7.125000 0.000000 0.000000 88.044263 -2.774341 5.800264 -14.565939 23.833202 -2.982612 0.004829 -0.602720 -3.824478 7.125000 0.000000 0.000000 
-0.143218 17.866475 -30.991095 -2.291123 3.190426 3.214047 -11.810310 -1.102329 -9.677998 0.440947 8.717933 22.582270 -3.385468 15.002039 -2.216731 0.141900 -2.428000 -6.690200 18.216211 -0.913346 -8.367393 -1.193493 -9.103733 23.880925 4.539306 -20.313084 -9.442543 -0.013500 0.750200 -2.061700 2.231565 -1.001157 -1.903130 1.727488 -0.542897 -2.618061 -1.987174 -8.478961 20.813432 -5.444600 -3.239000 12.312400 -90.323842 5.549318 19.604020 16.308415 -25.380689 -3.297460 0.291940 0.476124 -8.059643 -7.125000 0.000000 0.000000 88.129220 -2.784397 5.846711 -14.575114 23.849854 -2.987097 0.004024 -0.603786 -3.811460 7.125000 0.000000 0.000000 
-0.138956 17.865484 -30.985842 -2.186243 3.186933 3.210406 -11.947704 -1.110807 -9.640025 0.441802 8.725867 22.602534 -3.390385 15.024117 -2.281403 0.143000 -2.437300 -6.715700 18.073949 -1.045066 -8.377505 -1.192771 -9.099153 23.867130 4.517630 -20.225472 -9.353984 -0.014700 0.783200 -2.152600 2.159140 -1.033609 -1.886007 1.654077 -0.559778 -2.558973 -1.966907 -8.402149 20.765311 -5.435900 -3.201100 12.295900 -90.240403 5.609932 19.607920 16.318050 -25.388936 -3.300236 0.291634 0.476853 -8.060816 -7.125000 0.000000 0.000000 88.222889 -2.768043 5.852047 -14.572274 23.850247 -2.986242 0.002879 -0.603171 -3.627206 7.125000 0.000000 0.000000 
-0.139650 17.866772 -30.986436 -2.314958 3.135722 3.275090 -11.795724 -1.062703 -9.748179 0.446660 8.728138 22.617784 -3.387413 15.001268 -2.266651 0.139100 -2.403400 -6.621800 18.227613 -0.902871 -8.402377 -1.187855 -9.091486 23.844091 4.532738 -20.285256 -9.384731 -0.014100 0.767100 -2.108200 2.171489 -0.998785 -1.853788 1.583055 -0.545529 -2.430975 -1.922482 -8.411720 20.675067 -5.409700 -3.206900 12.232300 -90.163717 5.550879 19.645724 16.289898 -25.350273 -3.289494 0.292050 0.478482 -8.044773 -7.125000 0.000000 0.000000 88.305023 -2.703575 5.789700 -14.574113 23.856403 -2.986644 0.000507 -0.600540 -3.645011 7.125000 0.000000 0.000000 
-0.137172 17.866574 -30.983265 -2.379906 3.063112 3.279146 -11.740255 -1.061051 -9.748598 0.451227 8.736403 22.642188 -3.403811 15.052481 -2.328530 0.136800 -2.383700 -6.567200 18.289824 -0.850667 -8.371810 -1.182547 -9.081962 23.813078 4.532329 -20.284642 -9.358668 -0.014400 0.774300 -2.128100 2.154967 -0.990453 -1.859718 1.488315 -0.543629 -2.418728 -1.899979 -8.351370 20.659633 -5.396000 -3.176200 12.223500 -90.100474 5.599974 19.623610 16.276527 -25.328375 -3.283601 0.291623 0.479641 -8.042577 -7.125000 0.000000 0.000000 88.378009 -2.724221 5.838353 -14.584496 23.873393 -2.990177 -0.001333 -0.599276 -3.644143 7.125000 0.000000 0.000000 
-0.134100 17.866177 -30.979597 -2.456861 2.979642 3.269182 -11.677487 -1.077132 -9.733471 0.458859 8.751649 22.686813 -3.426596 15.124439 -2.419128 0.134500 -2.363700 -6.511800 18.362715 -0.800207 -8.318146 -1.174648 -9.066968 23.764545 4.531343 -20.282932 -9.322461 -0.014600 0.781400 -2.147400 2.140989 -0.978042 -1.869063 1.385544 -0.540156 -2.423677 -1.879549 -8.289064 20.666431 -5.384100 -3.143100 12.226900 -90.044705 5.665415 19.592427 16.273661 -25.320398 -3.281561 0.290731 0.480861 -8.053834 -7.125000 0.000000 0.000000 88.445183 -2.760307 5.896620 -14.595864 23.891192 -2.993748 -0.003159 -0.597745 -3.650415 7.125000 0.000000 0.000000 
-0.130730 17.865781 -30.976228 -2.534809 2.899458 3.255943 -11.615505 -1.107588 -9.704280 0.464426 8.763017 22.718863 -3.452300 15.207526 -2.508169 0.132300 -2.344100 -6.457600 18.434591 -0.752317 -8.264923 -1.167413 -9.053410 23.720432 4.530076 -20.280463 -9.290027 -0.014800 0.785300 -2.158100 2.128486 -0.961534 -1.880520 1.284960 -0.534599 -2.435789 -1.853958 -8.230697 20.679483 -5.370200 -3.110800 12.232700 -89.994762 5.733843 19.561007 16.272471 -25.314479 -3.280055 0.289480 0.481317 -8.058327 -7.125000 0.000000 0.000000 88.507935 -2.803366 5.954901 -14.611551 23.914860 -2.999257 -0.004422 -0.597050 -3.684622 7.125000 0.000000 0.000000 
-0.127261 17.865385 -30.973254 -2.598321 2.835429 3.247409 -11.568208 -1.149355 -9.674448 0.468692 8.772281 22.744517 -3.476652 15.286827 -2.591211 0.130400 -2.328000 -6.413000 18.489037 -0.724166 -8.226691 -1.161257 -9.041655 23.682273 4.527444 -20.271800 -9.256972 -0.014900 0.789000 -2.168400 2.114161 -0.953088 -1.907824 1.191318 -0.532719 -2.477403 -1.829711 -8.158409 20.702257 -5.356900 -3.071100 12.245400 -89.950802 5.818130 19.524078 16.271695 -25.308869 -3.278580 0.288354 0.481743 -8.064851 -7.125000 0.000000 0.000000 88.565066 -2.858598 6.005479 -14.622624 23.931793 -3.003084 -0.005425 -0.596572 -3.690548 7.125000 0.000000 0.000000 
-0.123792 17.865186 -30.970876 -2.648974 2.785835 3.242575 -11.534460 -1.204140 -9.643016 0.471506 8.779022 22.762127 -3.501139 15.368116 -2.664687 0.128500 -2.311000 -6.366100 18.527923 -0.708228 -8.202812 -1.156561 -9.032580 23.653050 4.523935 -20.259594 -9.226526 -0.014900 0.788300 -2.166500 2.098769 -0.939354 -1.924138 1.109180 -0.527866 -2.494924 -1.794057 -8.092788 20.704964 -5.338200 -3.034400 12.245600 -89.906710 5.879852 19.506567 16.267570 -25.299422 -3.276061 0.287524 0.481452 -8.056133 -7.125000 0.000000 0.000000 88.623705 -2.890917 6.004231 -14.625480 23.937912 -3.004327 -0.006165 -0.596344 -3.664890 7.125000 0.000000 0.000000 
-0.121215 17.865484 -30.969983 -2.674494 2.770442 3.264233 -11.517066 -1.244405 -9.649563 0.472530 8.781867 22.770807 -3.512515 15.404386 -2.700948 0.127200 -2.299000 -6.332700 18.542771 -0.711567 -8.221010 -1.153598 -9.025898 23.633481 4.521157 -20.248108 -9.201065 -0.014800 0.786200 -2.160600 2.081535 -0.945367 -1.959260 1.045673 -0.532146 -2.531604 -1.761052 -8.002794 20.712942 -5.319100 -2.986400 12.249600 -89.867082 5.947447 19.481656 16.260914 -25.286565 -3.272678 0.287021 0.481737 -8.041249 -7.125000 0.000000 0.000000 88.678519 -2.922251 5.995136 -14.622267 23.935701 -3.003339 -0.006499 -0.596377 -3.620403 7.125000 0.000000 0.000000 
